<svg height="480pt" viewBox="0 0 480 480.0006" width="480pt" xmlns="http://www.w3.org/2000/svg"><path d="m432 192v96h24c8.835938 0 16-7.164062 16-16v-64c0-8.835938-7.164062-16-16-16zm0 0" fill="#7c7c7c"/><path d="m8 336v-192c0-8.835938 7.164062-16 16-16h384c17.671875 0 32 14.328125 32 32v160c0 17.671875-14.328125 32-32 32h-384c-8.835938 0-16-7.164062-16-16zm0 0" fill="#ddddd9"/><path d="m408 128h-18.289062c-72.558594 119.28125-202.09375 192.066406-341.710938 192-13.503906 0-26.835938-.667969-40-2v18c0 8.835938 7.164062 16 16 16h384c17.671875 0 32-14.328125 32-32v-160c0-17.671875-14.328125-32-32-32zm0 0" fill="#c6c6c1"/><path d="m40 160h336v160h-336zm0 0" fill="#a2d22f"/><path d="m40 320h8c-2.679688 0-5.328125-.152344-8-.199219zm0 0" fill="#8aaf23"/><path d="m48 320h328v-160h-8c-75.476562 100.800781-194.074219 160.097656-320 160zm0 0" fill="#8aaf23"/><path d="m304 8h-152l-56 280h88l-24 184 160-280h-88zm0 0" fill="#ffc933"/><path d="m232 192 72-184h-41.894531l-79.984375 204.414062h109.238281l-131.359375 259.585938 160-280zm0 0" fill="#dda722"/><path d="m456 184h-8v-24c-.027344-22.082031-17.917969-39.972656-40-40h-139.199219l42.648438-109.089844c.960937-2.460937.644531-5.238281-.84375-7.421875-1.492188-2.179687-3.960938-3.488281-6.605469-3.488281h-152c-3.800781 0-7.078125 2.675781-7.839844 6.398438l-22.71875 113.601562h-97.441406c-13.253906 0-24 10.746094-24 24v192c0 13.253906 10.746094 24 24 24h142.542969l-14.480469 110.96875c-.492188 3.789062 1.765625 7.398438 5.386719 8.613281 3.621093 1.21875 7.601562-.296875 9.496093-3.613281l66.269532-115.96875h174.785156c22.082031-.027344 39.972656-17.917969 40-40v-24h8c13.253906 0 24-10.746094 24-24v-64c0-13.253906-10.746094-24-24-24zm-366.183594 109.070312c1.519532 1.855469 3.789063 2.929688 6.183594 2.929688h78.886719l-2.085938 16h-124.800781v-144h63.839844l-23.679688 118.398438c-.480468 2.363281.128906 4.8125 1.65625 6.671874zm-65.816406 50.929688c-4.417969 0-8-3.582031-8-8v-192c0-4.417969 3.582031-8 8-8h94.242188l-3.203126 16h-75.039062c-4.417969 0-8 3.582031-8 8v160c0 4.417969 3.582031 8 8 8h130.71875l-2.085938 16zm167.9375-54.96875c.296875-2.28125-.40625-4.582031-1.925781-6.3125s-3.710938-2.71875-6.011719-2.71875h-78.238281l52.796875-264h133.722656l-67.730469 173.089844c-.960937 2.460937-.644531 5.238281.84375 7.421875 1.492188 2.179687 3.964844 3.488281 6.605469 3.488281h74.214844l-133.039063 232.800781zm134.984375-101.03125c-1.429687-2.472656-4.066406-3.996094-6.921875-4h-76.28125l6.265625-16h118.015625v144h-107.359375l66.304687-116c1.421876-2.480469 1.410157-5.527344-.023437-8zm105.078125 132c0 13.253906-10.746094 24-24 24h-165.648438l9.144532-16h124.503906c4.417969 0 8-3.582031 8-8v-160c0-4.417969-3.582031-8-8-8h-119.757812l6.261718-16h145.496094c13.253906 0 24 10.746094 24 24zm32-48c0 4.417969-3.582031 8-8 8h-8v-80h8c4.417969 0 8 3.582031 8 8zm0 0"/><path d="m320 280h32v16h-32zm0 0"/><path d="m288 280h16v16h-16zm0 0"/></svg>